<svg width="102" height="89" viewBox="0 0 102 89" fill="none" xmlns="http://www.w3.org/2000/svg">
<circle cx="80" cy="22" r="22" fill="#49F458"/>
<path d="M87.5798 65.1659C87.4325 64.8699 87.2048 64.6215 86.9227 64.4491C86.6406 64.2767 86.3156 64.1873 85.985 64.1913H12.4106C12.08 64.1873 11.755 64.2767 11.4729 64.4491C11.1908 64.6215 10.963 64.8699 10.8157 65.1659L0.183601 86.4302C0.0492144 86.7032 -0.0131856 87.0061 0.00232059 87.31C0.0178268 87.6139 0.110724 87.9088 0.272201 88.1668C0.427357 88.4262 0.648459 88.64 0.913024 88.7863C1.17759 88.9326 1.47618 89.0062 1.77842 88.9996H96.6171C96.9194 89.0062 97.218 88.9326 97.4825 88.7863C97.7471 88.64 97.9682 88.4262 98.1233 88.1668C98.2848 87.9088 98.3777 87.6139 98.3932 87.31C98.4087 87.0061 98.3463 86.7032 98.2119 86.4302L87.5798 65.1659ZM61.6019 85.4556H36.7936C36.3236 85.4556 35.8729 85.2689 35.5406 84.9366C35.2083 84.6042 35.0216 84.1535 35.0216 83.6836C35.0216 83.2136 35.2083 82.7629 35.5406 82.4305C35.8729 82.0982 36.3236 81.9115 36.7936 81.9115H61.6019C62.0719 81.9115 62.5226 82.0982 62.8549 82.4305C63.1873 82.7629 63.374 83.2136 63.374 83.6836C63.374 84.1535 63.1873 84.6042 62.8549 84.9366C62.5226 85.2689 62.0719 85.4556 61.6019 85.4556Z" fill="black"/>
<path fill-rule="evenodd" clip-rule="evenodd" d="M13.7572 18.1187H36.7935H61.6019H84.6382C85.1081 18.1187 85.5589 18.3053 85.8912 18.6377C86.2235 18.97 86.4102 19.4207 86.4102 19.8907V58.8752C86.4102 59.3452 86.2235 59.7959 85.8912 60.1282C85.5589 60.4605 85.1081 60.6472 84.6382 60.6472H77.5501H20.8453H13.7572C13.2873 60.6472 12.8365 60.4605 12.5042 60.1282C12.1719 59.7959 11.9852 59.3452 11.9852 58.8752V19.8907C11.9852 19.4207 12.1719 18.97 12.5042 18.6377C12.8365 18.3053 13.2873 18.1187 13.7572 18.1187ZM34.3863 36.3305C35.0336 36.3305 35.5582 36.8552 35.5582 37.5023C35.5582 38.1495 35.0336 38.6742 34.3863 38.6742H29.3658C28.7185 38.6742 28.1939 38.1495 28.1939 37.5023C28.1939 36.8552 28.7185 36.3305 29.3658 36.3305H34.3863ZM19.3244 25.0339H25.6002C26.2474 25.0339 26.772 25.5586 26.772 26.2057C26.772 26.8529 26.2474 27.3776 25.6002 27.3776H19.3244C18.6771 27.3776 18.1525 26.8529 18.1525 26.2057C18.1525 25.5586 18.6771 25.0339 19.3244 25.0339ZM19.3244 30.0546H29.3658C30.0129 30.0546 30.5376 30.5793 30.5376 31.2265C30.5376 31.8736 30.0129 32.3983 29.3658 32.3983H19.3244C18.6771 32.3983 18.1525 31.8736 18.1525 31.2265C18.1525 30.5793 18.6771 30.0546 19.3244 30.0546ZM25.5169 52.5645C25.5169 53.2116 24.9923 53.7363 24.345 53.7363H19.3244C18.6771 53.7363 18.1525 53.2116 18.1525 52.5645V47.5437C18.1525 46.8965 18.6771 46.3719 19.3244 46.3719H24.345C24.9923 46.3719 25.5169 46.8965 25.5169 47.5437V52.5645ZM25.5169 42.5231C25.5169 43.1702 24.9923 43.6949 24.345 43.6949H19.3244C18.6771 43.6949 18.1525 43.1702 18.1525 42.5231V37.5023C18.1525 36.8551 18.6771 36.3304 19.3244 36.3304H24.345C24.9923 36.3304 25.5169 36.8551 25.5169 37.5023V42.5231ZM39.4072 53.7363H29.3658C28.7185 53.7363 28.1939 53.2116 28.1939 52.5645C28.1939 51.9173 28.7185 51.3926 29.3658 51.3926H39.4072C40.0543 51.3926 40.579 51.9173 40.579 52.5645C40.579 53.2116 40.0543 53.7363 39.4072 53.7363ZM28.1939 47.5438C28.1939 46.8966 28.7185 46.372 29.3658 46.372H34.3863C35.0336 46.372 35.5582 46.8966 35.5582 47.5438C35.5582 48.191 35.0336 48.7156 34.3863 48.7156H29.3658C28.7185 48.7156 28.1939 48.191 28.1939 47.5438ZM39.4072 43.6949H29.3658C28.7185 43.6949 28.1939 43.1702 28.1939 42.5231C28.1939 41.8759 28.7185 41.3512 29.3658 41.3512H39.4072C40.0543 41.3512 40.579 41.8759 40.579 42.5231C40.579 43.1702 40.0543 43.6949 39.4072 43.6949ZM20.4962 38.6741H23.1732V41.3512H20.4962V38.6741ZM23.1732 48.7157H20.4962V51.3927H23.1732V48.7157ZM68.4056 27.0702C68.4056 26.423 67.881 25.8983 67.2338 25.8983H62.2132C61.566 25.8983 61.0414 26.423 61.0414 27.0702C61.0414 27.7174 61.566 28.242 62.2132 28.242H67.2338C67.881 28.242 68.4056 27.7174 68.4056 27.0702ZM57.1925 43.3042C57.8397 43.3042 58.3643 42.7795 58.3643 42.1323V37.1116C58.3643 36.4644 57.8397 35.9397 57.1925 35.9397H52.1718C51.5246 35.9397 51 36.4644 51 37.1116V42.1323C51 42.7795 51.5246 43.3042 52.1718 43.3042H57.1925ZM57.1925 33.2628C57.8397 33.2628 58.3643 32.7381 58.3643 32.0909V27.0701C58.3643 26.4229 57.8397 25.8983 57.1925 25.8983H52.1718C51.5246 25.8983 51 26.4229 51 27.0701V32.0909C51 32.7381 51.5246 33.2628 52.1718 33.2628H57.1925ZM62.2132 43.3042H72.2546C72.9017 43.3042 73.4264 42.7795 73.4264 42.1323C73.4264 41.4851 72.9017 40.9605 72.2546 40.9605H62.2132C61.566 40.9605 61.0414 41.4851 61.0414 42.1323C61.0414 42.7795 61.566 43.3042 62.2132 43.3042ZM62.2132 35.9398C61.566 35.9398 61.0414 36.4645 61.0414 37.1117C61.0414 37.7588 61.566 38.2835 62.2132 38.2835H67.2338C67.881 38.2835 68.4056 37.7588 68.4056 37.1117C68.4056 36.4645 67.881 35.9398 67.2338 35.9398H62.2132ZM62.2132 33.2628H72.2546C72.9017 33.2628 73.4264 32.7381 73.4264 32.0909C73.4264 31.4438 72.9017 30.9191 72.2546 30.9191H62.2132C61.566 30.9191 61.0414 31.4438 61.0414 32.0909C61.0414 32.7381 61.566 33.2628 62.2132 33.2628ZM68.4056 47.5015C68.4056 46.8543 67.881 46.3297 67.2338 46.3297H62.2132C61.566 46.3297 61.0414 46.8543 61.0414 47.5015C61.0414 48.1487 61.566 48.6734 62.2132 48.6734H67.2338C67.881 48.6734 68.4056 48.1487 68.4056 47.5015ZM57.1925 53.6941C57.8397 53.6941 58.3643 53.1694 58.3643 52.5222V47.5014C58.3643 46.8543 57.8397 46.3296 57.1925 46.3296H52.1718C51.5246 46.3296 51 46.8543 51 47.5014V52.5222C51 53.1694 51.5246 53.6941 52.1718 53.6941H57.1925ZM62.2132 53.6941H72.2546C72.9017 53.6941 73.4264 53.1694 73.4264 52.5222C73.4264 51.8751 72.9017 51.3504 72.2546 51.3504H62.2132C61.566 51.3504 61.0414 51.8751 61.0414 52.5222C61.0414 53.1694 61.566 53.6941 62.2132 53.6941ZM55.838 48.7212H53.161V51.3983H55.838V48.7212Z" fill="black"/>
</svg>
