<svg width="136" height="143" viewBox="0 0 136 143" fill="none" xmlns="http://www.w3.org/2000/svg">
<path d="M68.0003 47.9261C55.6714 47.9261 45.6101 58.5087 45.6101 71.4764C45.6101 84.4442 55.6714 95.0268 68.0003 95.0268C80.3292 95.0268 90.3905 84.4442 90.3905 71.4764C90.3905 58.5087 80.3292 47.9261 68.0003 47.9261ZM135.154 71.4764C135.154 61.7242 135.238 52.0602 134.717 42.3256C134.197 31.0186 131.744 20.9836 123.884 12.7154C116.006 4.42949 106.482 1.86775 95.7319 1.32007C86.4601 0.772388 77.2722 0.860724 68.0171 0.860724C58.7452 0.860724 49.5573 0.772388 40.3023 1.32007C29.5523 1.86775 20.0116 4.44716 12.1507 12.7154C4.27296 21.0013 1.83742 31.0186 1.31671 42.3256C0.796012 52.0779 0.879996 61.7418 0.879996 71.4764C0.879996 81.2111 0.796012 90.8927 1.31671 100.627C1.83742 111.934 4.28976 121.969 12.1507 130.237C20.0284 138.523 29.5523 141.085 40.3023 141.633C49.5741 142.181 58.762 142.092 68.0171 142.092C77.289 142.092 86.4769 142.181 95.7319 141.633C106.482 141.085 116.023 138.506 123.884 130.237C131.761 121.952 134.197 111.934 134.717 100.627C135.255 90.8927 135.154 81.2287 135.154 71.4764ZM68.0003 107.712C48.9359 107.712 33.5499 91.5287 33.5499 71.4764C33.5499 51.4242 48.9359 35.2411 68.0003 35.2411C87.0648 35.2411 102.451 51.4242 102.451 71.4764C102.451 91.5287 87.0648 107.712 68.0003 107.712ZM103.862 42.2196C99.4105 42.2196 95.8159 38.4388 95.8159 33.757C95.8159 29.0752 99.4105 25.2944 103.862 25.2944C108.313 25.2944 111.907 29.0752 111.907 33.757C111.909 34.8687 111.701 35.9698 111.298 36.9972C110.894 38.0245 110.301 38.958 109.554 39.7441C108.806 40.5302 107.919 41.1535 106.942 41.5783C105.965 42.0031 104.919 42.221 103.862 42.2196Z" fill="black"/>
</svg>
