<svg width="21" height="20" viewBox="0 0 21 20" fill="none" xmlns="http://www.w3.org/2000/svg">
<path d="M14.517 0H6.447C4.87015 0.00185307 3.35844 0.629143 2.24353 1.74424C1.12862 2.85933 0.501588 4.37115 0.5 5.948L0.5 14.018C0.501853 15.5948 1.12914 17.1066 2.24424 18.2215C3.35933 19.3364 4.87115 19.9634 6.448 19.965H14.518C16.0948 19.9631 17.6066 19.3359 18.7215 18.2208C19.8364 17.1057 20.4634 15.5938 20.465 14.017V5.947C20.4631 4.37015 19.8359 2.85844 18.7208 1.74353C17.6057 0.628623 16.0938 0.00158794 14.517 0V0ZM18.457 14.017C18.457 14.5344 18.3551 15.0468 18.1571 15.5248C17.9591 16.0028 17.6689 16.4371 17.303 16.803C16.9371 17.1689 16.5028 17.4591 16.0248 17.6571C15.5468 17.8551 15.0344 17.957 14.517 17.957H6.447C5.40222 17.9567 4.40032 17.5415 3.66165 16.8026C2.92297 16.0638 2.508 15.0618 2.508 14.017V5.947C2.50827 4.90222 2.92349 3.90032 3.66235 3.16165C4.40122 2.42297 5.40322 2.008 6.448 2.008H14.518C15.5628 2.00827 16.5647 2.42349 17.3034 3.16235C18.042 3.90122 18.457 4.90322 18.457 5.948V14.018V14.017Z" fill="#FAFAFA"/>
<path d="M14.517 0H6.447C4.87015 0.00185307 3.35844 0.629143 2.24353 1.74424C1.12862 2.85933 0.501588 4.37115 0.5 5.948L0.5 14.018C0.501853 15.5948 1.12914 17.1066 2.24424 18.2215C3.35933 19.3364 4.87115 19.9634 6.448 19.965H14.518C16.0948 19.9631 17.6066 19.3359 18.7215 18.2208C19.8364 17.1057 20.4634 15.5938 20.465 14.017V5.947C20.4631 4.37015 19.8359 2.85844 18.7208 1.74353C17.6057 0.628623 16.0938 0.00158794 14.517 0V0ZM18.457 14.017C18.457 14.5344 18.3551 15.0468 18.1571 15.5248C17.9591 16.0028 17.6689 16.4371 17.303 16.803C16.9371 17.1689 16.5028 17.4591 16.0248 17.6571C15.5468 17.8551 15.0344 17.957 14.517 17.957H6.447C5.40222 17.9567 4.40032 17.5415 3.66165 16.8026C2.92297 16.0638 2.508 15.0618 2.508 14.017V5.947C2.50827 4.90222 2.92349 3.90032 3.66235 3.16165C4.40122 2.42297 5.40322 2.008 6.448 2.008H14.518C15.5628 2.00827 16.5647 2.42349 17.3034 3.16235C18.042 3.90122 18.457 4.90322 18.457 5.948V14.018V14.017Z" fill="url(#paint0_linear)"/>
<path d="M10.4823 4.81836C9.11374 4.82048 7.80184 5.36514 6.83421 6.33297C5.86658 7.30079 5.32216 8.61279 5.32031 9.98136C5.3219 11.3503 5.86634 12.6627 6.83421 13.6308C7.80209 14.5988 9.11439 15.1435 10.4833 15.1454C11.8524 15.1438 13.165 14.5992 14.1331 13.6311C15.1012 12.663 15.6457 11.3505 15.6473 9.98136C15.6452 8.61244 15.1003 7.30024 14.132 6.33255C13.1637 5.36486 11.8512 4.82068 10.4823 4.81936V4.81836ZM10.4823 13.1374C9.64555 13.1374 8.84307 12.805 8.25139 12.2133C7.65971 11.6216 7.32731 10.8191 7.32731 9.98236C7.32731 9.1456 7.65971 8.34311 8.25139 7.75144C8.84307 7.15976 9.64555 6.82736 10.4823 6.82736C11.3191 6.82736 12.1216 7.15976 12.7132 7.75144C13.3049 8.34311 13.6373 9.1456 13.6373 9.98236C13.6373 10.8191 13.3049 11.6216 12.7132 12.2133C12.1216 12.805 11.3191 13.1374 10.4823 13.1374Z" fill="#FAFAFA"/>
<path d="M10.4823 4.81836C9.11374 4.82048 7.80184 5.36514 6.83421 6.33297C5.86658 7.30079 5.32216 8.61279 5.32031 9.98136C5.3219 11.3503 5.86634 12.6627 6.83421 13.6308C7.80209 14.5988 9.11439 15.1435 10.4833 15.1454C11.8524 15.1438 13.165 14.5992 14.1331 13.6311C15.1012 12.663 15.6457 11.3505 15.6473 9.98136C15.6452 8.61244 15.1003 7.30024 14.132 6.33255C13.1637 5.36486 11.8512 4.82068 10.4823 4.81936V4.81836ZM10.4823 13.1374C9.64555 13.1374 8.84307 12.805 8.25139 12.2133C7.65971 11.6216 7.32731 10.8191 7.32731 9.98236C7.32731 9.1456 7.65971 8.34311 8.25139 7.75144C8.84307 7.15976 9.64555 6.82736 10.4823 6.82736C11.3191 6.82736 12.1216 7.15976 12.7132 7.75144C13.3049 8.34311 13.6373 9.1456 13.6373 9.98236C13.6373 10.8191 13.3049 11.6216 12.7132 12.2133C12.1216 12.805 11.3191 13.1374 10.4823 13.1374Z" fill="url(#paint1_linear)"/>
<path d="M15.6559 6.09509C16.3391 6.09509 16.8929 5.54127 16.8929 4.85809C16.8929 4.17492 16.3391 3.62109 15.6559 3.62109C14.9728 3.62109 14.4189 4.17492 14.4189 4.85809C14.4189 5.54127 14.9728 6.09509 15.6559 6.09509Z" fill="#FAFAFA"/>
<path d="M15.6559 6.09509C16.3391 6.09509 16.8929 5.54127 16.8929 4.85809C16.8929 4.17492 16.3391 3.62109 15.6559 3.62109C14.9728 3.62109 14.4189 4.17492 14.4189 4.85809C14.4189 5.54127 14.9728 6.09509 15.6559 6.09509Z" fill="url(#paint2_linear)"/>
<defs>
<linearGradient id="paint0_linear" x1="10.4825" y1="0" x2="10.4825" y2="19.965" gradientUnits="userSpaceOnUse">
<stop stop-color="#7732AA"/>
<stop offset="0.526042" stop-color="#D01948"/>
<stop offset="1" stop-color="#F7C703"/>
</linearGradient>
<linearGradient id="paint1_linear" x1="10.4838" y1="4.81836" x2="10.4838" y2="15.1454" gradientUnits="userSpaceOnUse">
<stop stop-color="#7732AA"/>
<stop offset="0.526042" stop-color="#D01948"/>
<stop offset="1" stop-color="#F7C703"/>
</linearGradient>
<linearGradient id="paint2_linear" x1="15.6559" y1="3.62109" x2="15.6559" y2="6.09509" gradientUnits="userSpaceOnUse">
<stop stop-color="#7732AA"/>
<stop offset="0.9375" stop-color="#D01948"/>
<stop offset="1" stop-color="#F7C703"/>
</linearGradient>
</defs>
</svg>
