<svg width="96" height="96" viewBox="0 0 96 96" fill="none" xmlns="http://www.w3.org/2000/svg">
<circle cx="32" cy="64" r="32" fill="#49F458"/>
<path d="M20.125 38.625H37.6562V30.6562C37.6562 28.5428 38.4958 26.5159 39.9902 25.0215C41.4847 23.5271 43.5116 22.6875 45.625 22.6875C45.8745 22.689 46.1201 22.749 46.3422 22.8628L52 25.6837L57.6578 22.8628C57.8799 22.749 58.1255 22.689 58.375 22.6875C59.4215 22.6875 60.4577 22.8936 61.4245 23.2941C62.3913 23.6946 63.2698 24.2815 64.0098 25.0215C64.7497 25.7615 65.3367 26.6399 65.7372 27.6067C66.1376 28.5736 66.3438 29.6098 66.3438 30.6562V38.625H83.875C84.2977 38.625 84.7031 38.4571 85.002 38.1582C85.3008 37.8593 85.4688 37.4539 85.4688 37.0312V1.96875C85.4688 1.54606 85.3008 1.14068 85.002 0.841799C84.7031 0.542913 84.2977 0.375 83.875 0.375H20.125C19.7023 0.375 19.2969 0.542913 18.998 0.841799C18.6992 1.14068 18.5312 1.54606 18.5312 1.96875V37.0312C18.5312 37.4539 18.6992 37.8593 18.998 38.1582C19.2969 38.4571 19.7023 38.625 20.125 38.625ZM44.0312 9.9375C44.0312 8.24674 44.7029 6.62524 45.8984 5.42969C47.094 4.23415 48.7155 3.5625 50.4062 3.5625H53.5938C55.2845 3.5625 56.906 4.23415 58.1016 5.42969C59.2971 6.62524 59.9688 8.24674 59.9688 9.9375V13.125C59.9688 14.8158 59.2971 16.4373 58.1016 17.6328C56.906 18.8284 55.2845 19.5 53.5938 19.5H50.4062C48.7155 19.5 47.094 18.8284 45.8984 17.6328C44.7029 16.4373 44.0312 14.8158 44.0312 13.125V9.9375Z" fill="black"/>
<path d="M58.4387 57.75H42.4375C42.0148 57.75 41.6094 57.5821 41.3105 57.2832C41.0116 56.9843 40.8437 56.5789 40.8437 56.1562C40.8437 55.7335 41.0116 55.3282 41.3105 55.0293C41.6094 54.7304 42.0148 54.5625 42.4375 54.5625H65.6106L68.8778 53.1122C69.0827 53.0177 69.3056 52.9688 69.5312 52.9688C69.7569 52.9688 69.9798 53.0177 70.1847 53.1122L87.7956 60.9375H95.6369L86.5206 42.6891C86.3881 42.4228 86.1833 42.1994 85.9296 42.0443C85.6758 41.8893 85.3836 41.8089 85.0862 41.8125H18.9137C18.6164 41.8089 18.3241 41.8893 18.0704 42.0443C17.8167 42.1994 17.6118 42.4228 17.4793 42.6891L8.3631 60.9375H51.2669L58.4387 57.75Z" fill="black"/>
<path d="M53.5938 6.75H50.4062C48.6458 6.75 47.2188 8.17709 47.2188 9.9375V13.125C47.2188 14.8854 48.6458 16.3125 50.4062 16.3125H53.5938C55.3542 16.3125 56.7812 14.8854 56.7812 13.125V9.9375C56.7812 8.17709 55.3542 6.75 53.5938 6.75Z" fill="black"/>
<path d="M52.7172 28.8872C52.4965 29.005 52.2502 29.0666 52 29.0666C51.7498 29.0666 51.5035 29.005 51.2828 28.8872L45.2744 25.891C44.0708 25.9795 42.9452 26.5199 42.1234 27.4037C41.3017 28.2876 40.8445 29.4495 40.8438 30.6563V38.6251H63.1562V30.6563C63.1555 29.4495 62.6983 28.2876 61.8766 27.4037C61.0548 26.5199 59.9292 25.9795 58.7256 25.891L52.7172 28.8872Z" fill="black"/>
<path d="M70.1847 81.5128C69.9798 81.6073 69.7569 81.6562 69.5313 81.6562C69.3056 81.6562 69.0827 81.6073 68.8778 81.5128L52 74.0222V86.4375C52.5419 87.5053 58.885 89.625 69.5313 89.625C80.1775 89.625 86.5206 87.5053 87.0784 86.3259L87.0625 74.0062L70.1847 81.5128Z" fill="black"/>
<path d="M66.5668 57.6225L48.3503 65.7187L44.7644 67.3125L45.6218 67.6934V78.4687L44.5683 80.5773C44.3436 81.0269 44.2376 81.5266 44.2603 82.0287C44.2831 82.5309 44.4339 83.0189 44.6983 83.4464C44.9628 83.8739 45.3321 84.2267 45.7713 84.4713C46.2105 84.7158 46.7049 84.8441 47.2076 84.8437H47.2299C47.7323 84.8435 48.2263 84.7149 48.6651 84.4701C49.1038 84.2253 49.4727 83.8725 49.7368 83.4451C50.0009 83.0177 50.1514 82.5299 50.174 82.0279C50.1966 81.526 50.0905 81.0267 49.8659 80.5773L48.8125 78.4687V69.1118L69.5312 78.3253L94.2981 67.3125L69.5312 56.2997L66.5668 57.6225Z" fill="black"/>
</svg>
