<svg width="87" height="84" viewBox="0 0 87 84" fill="none" xmlns="http://www.w3.org/2000/svg">
<circle cx="46" cy="34" r="32" fill="#49F458"/>
<path d="M37.4136 71.2638H56.3716C57.116 71.262 57.8434 71.4868 58.4569 71.9084L75.3296 83.1316V75.0555C75.3296 74.0499 75.729 73.0854 76.4401 72.3744C77.1512 71.6633 78.1156 71.2638 79.1212 71.2638H82.9128C83.9184 71.2638 84.8828 70.8644 85.5938 70.1533C86.3049 69.4422 86.7044 68.4778 86.7044 67.4722V44.7226C86.7044 43.717 86.3049 42.7526 85.5938 42.0416C84.8828 41.3305 83.9184 40.931 82.9128 40.931H37.4136C36.408 40.931 35.4435 41.3305 34.7325 42.0416C34.0214 42.7526 33.6219 43.717 33.6219 44.7226V67.4722C33.6219 68.4778 34.0214 69.4422 34.7325 70.1533C35.4435 70.8644 36.408 71.2638 37.4136 71.2638Z" fill="black"/>
<path d="M49.2908 0H3.7916C2.78601 0 1.82159 0.399472 1.11053 1.11054C0.399468 1.8216 0 2.78601 0 3.7916V26.5412C0 27.5468 0.399468 28.5112 1.11053 29.2223C1.82159 29.9333 2.78601 30.3328 3.7916 30.3328H7.5832C8.5888 30.3328 9.55321 30.7323 10.2643 31.4434C10.9753 32.1544 11.3748 33.1188 11.3748 34.1244V42.2005L28.2474 30.9774C28.861 30.5558 29.5884 30.331 30.3328 30.3328H49.2908C50.2964 30.3328 51.2608 29.9333 51.9719 29.2223C52.683 28.5112 53.0824 27.5468 53.0824 26.5412V3.7916C53.0824 2.78601 52.683 1.8216 51.9719 1.11054C51.2608 0.399472 50.2964 0 49.2908 0Z" fill="black"/>
<path d="M23.0664 18.7617C23.0664 17.668 23.1992 16.7969 23.4648 16.1484C23.7305 15.5 24.2148 14.8633 24.918 14.2383C25.6289 13.6055 26.1016 13.0938 26.3359 12.7031C26.5703 12.3047 26.6875 11.8867 26.6875 11.4492C26.6875 10.1289 26.0781 9.46875 24.8594 9.46875C24.2812 9.46875 23.8164 9.64844 23.4648 10.0078C23.1211 10.3594 22.9414 10.8477 22.9258 11.4727H19.5273C19.543 9.98047 20.0234 8.8125 20.9688 7.96875C21.9219 7.125 23.2188 6.70312 24.8594 6.70312C26.5156 6.70312 27.8008 7.10547 28.7148 7.91016C29.6289 8.70703 30.0859 9.83594 30.0859 11.2969C30.0859 11.9609 29.9375 12.5898 29.6406 13.1836C29.3438 13.7695 28.8242 14.4219 28.082 15.1406L27.1328 16.043C26.5391 16.6133 26.1992 17.2812 26.1133 18.0469L26.0664 18.7617H23.0664ZM22.7266 22.3594C22.7266 21.8359 22.9023 21.4062 23.2539 21.0703C23.6133 20.7266 24.0703 20.5547 24.625 20.5547C25.1797 20.5547 25.6328 20.7266 25.9844 21.0703C26.3438 21.4062 26.5234 21.8359 26.5234 22.3594C26.5234 22.875 26.3477 23.3008 25.9961 23.6367C25.6523 23.9727 25.1953 24.1406 24.625 24.1406C24.0547 24.1406 23.5938 23.9727 23.2422 23.6367C22.8984 23.3008 22.7266 22.875 22.7266 22.3594Z" fill="white"/>
<path d="M61.7461 58.7617H58.9336L58.5352 46.9375H62.1445L61.7461 58.7617ZM60.3398 60.6133C60.9102 60.6133 61.3672 60.7812 61.7109 61.1172C62.0625 61.4531 62.2383 61.8828 62.2383 62.4062C62.2383 62.9219 62.0625 63.3477 61.7109 63.6836C61.3672 64.0195 60.9102 64.1875 60.3398 64.1875C59.7773 64.1875 59.3203 64.0195 58.9688 63.6836C58.625 63.3477 58.4531 62.9219 58.4531 62.4062C58.4531 61.8906 58.625 61.4648 58.9688 61.1289C59.3203 60.7852 59.7773 60.6133 60.3398 60.6133Z" fill="white"/>
</svg>
