<svg width="124" height="124" viewBox="0 0 124 124" fill="none" xmlns="http://www.w3.org/2000/svg">
<path d="M62.1091 0.286377C27.9686 0.286377 0.286362 27.9686 0.286362 62.1091C0.286362 96.2496 27.9686 123.932 62.1091 123.932C96.2496 123.932 123.932 96.2496 123.932 62.1091C123.932 27.9686 96.2496 0.286377 62.1091 0.286377ZM81.9945 63.0613L51.8559 84.989C51.6907 85.1078 51.4959 85.1786 51.293 85.1939C51.0901 85.2092 50.887 85.1682 50.7058 85.0755C50.5247 84.9828 50.3727 84.8419 50.2664 84.6684C50.1601 84.495 50.1037 84.2955 50.1033 84.0921V40.2642C50.1027 40.0603 50.1585 39.8602 50.2645 39.6861C50.3706 39.512 50.5228 39.3707 50.7043 39.2778C50.8858 39.1849 51.0895 39.1441 51.2927 39.1599C51.496 39.1756 51.6909 39.2474 51.8559 39.3672L81.9945 61.2811C82.1369 61.3818 82.253 61.5152 82.3332 61.6701C82.4133 61.825 82.4552 61.9968 82.4552 62.1712C82.4552 62.3456 82.4133 62.5174 82.3332 62.6723C82.253 62.8272 82.1369 62.9606 81.9945 63.0613Z" fill="black"/>
</svg>
