<svg width="101" height="107" viewBox="0 0 101 107" fill="none" xmlns="http://www.w3.org/2000/svg">
<circle cx="51.5" cy="28.5" r="28.5" fill="#49F458"/>
<path d="M7.89062 34.4062H29.9844C30.4029 34.4062 30.8043 34.24 31.1003 33.944C31.3962 33.6481 31.5625 33.2467 31.5625 32.8281V13.8906C31.5625 13.4721 31.3962 13.0707 31.1003 12.7747C30.8043 12.4788 30.4029 12.3125 29.9844 12.3125H7.89062C7.47208 12.3125 7.07068 12.4788 6.77472 12.7747C6.47877 13.0707 6.3125 13.4721 6.3125 13.8906V32.8281C6.3125 33.2467 6.47877 33.6481 6.77472 33.944C7.07068 34.24 7.47208 34.4062 7.89062 34.4062ZM12.625 20.2031C12.6287 18.9486 13.1287 17.7466 14.0158 16.8596C14.9029 15.9725 16.1049 15.4725 17.3594 15.4688H20.5156C21.7701 15.4725 22.9721 15.9725 23.8592 16.8596C24.7463 17.7466 25.2463 18.9486 25.25 20.2031V26.5156C25.2479 26.7962 25.2215 27.076 25.1711 27.352L26.3705 28.5514C26.6661 28.8494 26.832 29.2521 26.832 29.6719C26.832 30.0916 26.6661 30.4944 26.3705 30.7923C26.0713 31.0857 25.669 31.2501 25.25 31.2501C24.831 31.2501 24.4287 31.0857 24.1295 30.7923L23.4983 30.1611C22.6604 30.859 21.606 31.2439 20.5156 31.25H17.3594C16.1049 31.2463 14.9029 30.7463 14.0158 29.8592C13.1287 28.9721 12.6287 27.7701 12.625 26.5156V20.2031Z" fill="black"/>
<path d="M68.2381 65.9688L65.4133 67.3733C65.1947 67.4899 64.9508 67.5509 64.7031 67.5509C64.4554 67.5509 64.2115 67.4899 63.993 67.3733L61.1681 65.9688H59.9688C59.1357 65.9818 58.3405 66.3185 57.7513 66.9076C57.1622 67.4967 56.8255 68.292 56.8125 69.125V78.5938H72.5938V69.125C72.5807 68.292 72.244 67.4967 71.6549 66.9076C71.0658 66.3185 70.2705 65.9818 69.4375 65.9688H68.2381Z" fill="black"/>
<path d="M26.8281 43.875H20.5156C17.9009 43.875 15.7812 45.9947 15.7812 48.6094V58.0781C15.7812 60.6928 17.9009 62.8125 20.5156 62.8125H26.8281C29.4428 62.8125 31.5625 60.6928 31.5625 58.0781V48.6094C31.5625 45.9947 29.4428 43.875 26.8281 43.875Z" fill="black"/>
<path d="M82.0625 21.5446L80.7842 24.9375H83.3408L82.0625 21.5446Z" fill="black"/>
<path d="M17.3594 28.0938H20.5156C20.7716 28.0913 21.0222 28.0204 21.2416 27.8886L19.3952 26.058C19.098 25.7608 18.931 25.3578 18.931 24.9375C18.931 24.5172 19.098 24.1142 19.3952 23.817C19.6923 23.5199 20.0954 23.3529 20.5156 23.3529C20.9359 23.3529 21.3389 23.5199 21.6361 23.817L22.0938 24.2905V20.2031C22.0938 19.7846 21.9275 19.3832 21.6315 19.0872C21.3356 18.7913 20.9342 18.625 20.5156 18.625H17.3594C16.9408 18.625 16.5394 18.7913 16.2435 19.0872C15.9475 19.3832 15.7812 19.7846 15.7812 20.2031V26.5156C15.7812 26.9342 15.9475 27.3356 16.2435 27.6315C16.5394 27.9275 16.9408 28.0938 17.3594 28.0938Z" fill="black"/>
<path d="M71.0156 34.4062H93.1094C93.5279 34.4062 93.9293 34.24 94.2253 33.944C94.5212 33.6481 94.6875 33.2467 94.6875 32.8281V13.8906C94.6875 13.4721 94.5212 13.0707 94.2253 12.7747C93.9293 12.4788 93.5279 12.3125 93.1094 12.3125H71.0156C70.5971 12.3125 70.1957 12.4788 69.8997 12.7747C69.6038 13.0707 69.4375 13.4721 69.4375 13.8906V32.8281C69.4375 33.2467 69.6038 33.6481 69.8997 33.944C70.1957 34.24 70.5971 34.4062 71.0156 34.4062ZM75.8447 29.1195L80.5791 16.4945C80.6896 16.1899 80.8913 15.9266 81.1567 15.7406C81.4222 15.5546 81.7384 15.4548 82.0625 15.4548C82.3866 15.4548 82.7028 15.5546 82.9683 15.7406C83.2337 15.9266 83.4354 16.1899 83.5459 16.4945L88.2803 29.1195C88.4251 29.5131 88.4085 29.9479 88.2341 30.3292C88.0596 30.7105 87.7416 31.0075 87.3492 31.1553C87.172 31.2186 86.9851 31.2507 86.7969 31.25C86.475 31.2484 86.1612 31.1496 85.8965 30.9666C85.6318 30.7835 85.4286 30.5248 85.3134 30.2242L84.5244 28.0938H79.6006L78.8116 30.2242C78.739 30.419 78.6288 30.5976 78.4873 30.7499C78.3457 30.9021 78.1755 31.0249 77.9865 31.1114C77.7975 31.1978 77.5933 31.2462 77.3855 31.2538C77.1778 31.2613 76.9706 31.2278 76.7758 31.1553C76.581 31.0828 76.4024 30.9726 76.2501 30.831C76.0979 30.6895 75.9751 30.5193 75.8886 30.3303C75.8022 30.1412 75.7538 29.937 75.7462 29.7293C75.7387 29.5215 75.7722 29.3143 75.8447 29.1195Z" fill="black"/>
<path d="M39.4531 72.2812H33.5194L27.5383 75.2639C27.3184 75.3766 27.0752 75.436 26.8281 75.4375H20.5156C20.2686 75.436 20.0253 75.3766 19.8055 75.2639L13.8244 72.2812H7.89062C7.47208 72.2812 7.07068 72.4475 6.77472 72.7435C6.47877 73.0394 6.3125 73.4408 6.3125 73.8594V99.1094C6.3125 99.5279 6.47877 99.9293 6.77472 100.225C7.07068 100.521 7.47208 100.688 7.89062 100.688H39.4531C39.8717 100.688 40.2731 100.521 40.569 100.225C40.865 99.9293 41.0312 99.5279 41.0312 99.1094V73.8594C41.0312 73.4408 40.865 73.0394 40.569 72.7435C40.2731 72.4475 39.8717 72.2812 39.4531 72.2812Z" fill="black"/>
<path d="M64.7031 56.5C66.4463 56.5 67.8594 55.0869 67.8594 53.3438C67.8594 51.6006 66.4463 50.1875 64.7031 50.1875C62.96 50.1875 61.5469 51.6006 61.5469 53.3438C61.5469 55.0869 62.96 56.5 64.7031 56.5Z" fill="black"/>
<path d="M86.3392 82.5391C86.2045 82.298 86.0075 82.0975 85.7687 81.9587C85.5299 81.8199 85.2582 81.7478 84.982 81.7501H44.1875V97.5313H95.0978L86.3392 82.5391ZM69.4375 94.3751H56.8125C56.394 94.3751 55.9926 94.2088 55.6966 93.9128C55.4006 93.6169 55.2344 93.2155 55.2344 92.7969C55.2344 92.3784 55.4006 91.977 55.6966 91.681C55.9926 91.3851 56.394 91.2188 56.8125 91.2188H69.4375C69.856 91.2188 70.2574 91.3851 70.5534 91.681C70.8494 91.977 71.0156 92.3784 71.0156 92.7969C71.0156 93.2155 70.8494 93.6169 70.5534 93.9128C70.2574 94.2088 69.856 94.3751 69.4375 94.3751Z" fill="black"/>
<path d="M44.1875 78.5938H53.6562V69.125C53.6771 67.4573 54.3489 65.8638 55.5282 64.6845C56.7075 63.5051 58.3011 62.8334 59.9688 62.8125H61.9098L64.7031 64.2013L67.4964 62.8125H69.4375C71.1052 62.8334 72.6987 63.5051 73.878 64.6845C75.0574 65.8638 75.7291 67.4573 75.75 69.125V78.5938H86.7969V47.0312C86.7944 46.1949 86.461 45.3936 85.8697 44.8022C85.2783 44.2108 84.4769 43.8775 83.6406 43.875H33.1406C34.1711 45.2376 34.7256 46.901 34.7188 48.6094V58.0781C34.7188 60.1708 33.8874 62.1779 32.4076 63.6576C30.9279 65.1374 28.9208 65.9688 26.8281 65.9688H25.25V72.2812H26.4494L32.7777 69.125H39.4531C40.7076 69.1287 41.9096 69.6287 42.7967 70.5158C43.6838 71.4029 44.1838 72.6049 44.1875 73.8594V78.5938ZM64.7031 47.0312C65.9516 47.0312 67.1721 47.4015 68.2102 48.0951C69.2482 48.7887 70.0573 49.7746 70.5351 50.9281C71.0129 52.0815 71.1379 53.3508 70.8943 54.5753C70.6508 55.7998 70.0496 56.9245 69.1667 57.8074C68.2839 58.6902 67.1591 59.2914 65.9346 59.535C64.7101 59.7785 63.4409 59.6535 62.2874 59.1757C61.134 58.698 60.1481 57.8889 59.4545 56.8508C58.7608 55.8127 58.3906 54.5922 58.3906 53.3438C58.3906 51.6696 59.0557 50.064 60.2395 48.8801C61.4233 47.6963 63.0289 47.0312 64.7031 47.0312Z" fill="black"/>
</svg>
