<svg width="25" height="24" viewBox="0 0 25 24" fill="none" xmlns="http://www.w3.org/2000/svg">
<path d="M11.898 0.00195461C9.97297 0.0279546 5.83097 0.343955 3.51397 2.46695C1.79397 4.17695 1.19297 6.69795 1.12297 9.81995C1.06297 12.93 0.992973 18.77 6.62297 20.361V22.781C6.62297 22.781 6.58497 23.751 7.22497 23.951C8.01497 24.201 8.46497 23.452 9.21497 22.652L10.615 21.072C14.465 21.392 17.415 20.653 17.755 20.543C18.535 20.293 22.936 19.732 23.656 13.891C24.396 7.85995 23.296 4.05995 21.316 2.33995L21.306 2.33795C20.706 1.78795 18.306 0.0379546 12.936 0.0179546C12.936 0.0179546 12.54 -0.00704539 11.898 0.00195461ZM11.965 1.69895C12.51 1.69595 12.845 1.71895 12.845 1.71895C17.385 1.72895 19.556 3.09895 20.066 3.55895C21.736 4.98795 22.594 8.41496 21.966 13.451C21.366 18.331 17.796 18.641 17.136 18.851C16.856 18.941 14.256 19.581 10.984 19.371C10.984 19.371 8.54497 22.312 7.78497 23.072C7.66497 23.202 7.52497 23.242 7.43497 23.222C7.30497 23.192 7.26497 23.032 7.27497 22.812L7.29497 18.793C2.52397 17.473 2.80397 12.491 2.85397 9.89095C2.91397 7.29095 3.40397 5.15895 4.85397 3.71895C6.81097 1.94895 10.329 1.70895 11.964 1.69895H11.965ZM12.325 4.29895C12.2856 4.29882 12.2466 4.30646 12.2102 4.32143C12.1739 4.33639 12.1408 4.3584 12.1129 4.38618C12.085 4.41395 12.0629 4.44696 12.0478 4.4833C12.0327 4.51964 12.025 4.55861 12.025 4.59795C12.025 4.67752 12.0566 4.75383 12.1128 4.81009C12.1691 4.86635 12.2454 4.89795 12.325 4.89795C13.0684 4.88377 13.8073 5.01697 14.499 5.28988C15.1907 5.56278 15.8215 5.96997 16.355 6.48795C17.445 7.54795 17.976 8.96795 17.996 10.828C17.996 10.8674 18.0037 10.9064 18.0188 10.9428C18.0339 10.9792 18.056 11.0122 18.0838 11.0401C18.1117 11.0679 18.1448 11.09 18.1812 11.1051C18.2176 11.1202 18.2566 11.128 18.296 11.128V11.119C18.3755 11.119 18.4518 11.0873 18.5081 11.0311C18.5644 10.9748 18.596 10.8985 18.596 10.819C18.6331 9.94424 18.4917 9.07113 18.1805 8.25279C17.8694 7.43446 17.3949 6.68802 16.786 6.05895C15.596 4.89895 14.094 4.29895 12.324 4.29895H12.325ZM8.37097 4.98895C8.15831 4.95865 7.94164 5.00093 7.75597 5.10895H7.74397C7.33397 5.34895 6.95597 5.64895 6.59597 6.04895C6.32597 6.36895 6.17497 6.68795 6.13497 6.99795C6.11144 7.17977 6.12852 7.36453 6.18497 7.53895L6.20497 7.54895C6.5132 8.4551 6.91539 9.32651 7.40497 10.149C8.03959 11.3008 8.81928 12.3665 9.72497 13.32L9.75497 13.36L9.79497 13.39L9.82497 13.42L9.85497 13.45C10.8122 14.3579 11.8807 15.1409 13.035 15.78C14.355 16.5 15.157 16.84 15.637 16.98V16.99C15.777 17.03 15.905 17.05 16.035 17.05C16.4447 17.0201 16.8326 16.8539 17.137 16.578C17.527 16.228 17.837 15.84 18.067 15.43V15.42C18.297 14.99 18.217 14.579 17.887 14.299C17.2219 13.7172 16.5019 13.2014 15.737 12.759C15.227 12.479 14.707 12.649 14.497 12.929L14.047 13.498C13.817 13.778 13.397 13.738 13.397 13.738L13.385 13.748C10.265 12.948 9.43497 9.78895 9.43497 9.78895C9.43497 9.78895 9.39497 9.35895 9.68497 9.13895L10.245 8.68895C10.515 8.46895 10.705 7.94895 10.415 7.43895C9.97312 6.67369 9.45732 5.95358 8.87497 5.28895C8.7483 5.13185 8.56947 5.0254 8.37097 4.98895ZM12.844 5.87895C12.7644 5.87922 12.6882 5.91108 12.6321 5.96753C12.5761 6.02398 12.5447 6.10039 12.545 6.17995C12.5452 6.25952 12.5771 6.33572 12.6335 6.39179C12.69 6.44787 12.7664 6.47922 12.846 6.47895C13.8467 6.49633 14.7997 6.90989 15.496 7.62895C15.8101 7.97547 16.0516 8.38142 16.2062 8.82284C16.3607 9.26425 16.4253 9.73217 16.396 10.199C16.3962 10.2783 16.428 10.3544 16.4842 10.4104C16.5404 10.4665 16.6166 10.498 16.696 10.498L16.706 10.51C16.7455 10.51 16.7845 10.5022 16.821 10.487C16.8575 10.4719 16.8906 10.4497 16.9185 10.4217C16.9463 10.3938 16.9684 10.3606 16.9834 10.3241C16.9984 10.2876 17.0061 10.2484 17.006 10.209C17.036 9.01895 16.666 8.01895 15.936 7.21895C15.206 6.41895 14.186 5.96896 12.886 5.87895C12.872 5.87797 12.858 5.87797 12.844 5.87895ZM13.334 7.49795C13.2939 7.49677 13.2539 7.5035 13.2164 7.51777C13.1789 7.53203 13.1445 7.55354 13.1153 7.58107C13.0861 7.6086 13.0626 7.64162 13.0462 7.67823C13.0297 7.71484 13.0207 7.75434 13.0195 7.79445C13.0183 7.83457 13.025 7.87453 13.0393 7.91205C13.0535 7.94957 13.0751 7.98391 13.1026 8.01311C13.1301 8.04232 13.1631 8.06581 13.1997 8.08226C13.2364 8.0987 13.2759 8.10777 13.316 8.10895C14.306 8.15895 14.786 8.65895 14.846 9.68895C14.8486 9.76677 14.8813 9.84053 14.9373 9.89465C14.9933 9.94877 15.0681 9.979 15.146 9.97895H15.156C15.1963 9.9777 15.2359 9.96834 15.2725 9.95144C15.3091 9.93453 15.3419 9.91042 15.3689 9.88056C15.396 9.85069 15.4168 9.81567 15.43 9.7776C15.4433 9.73952 15.4487 9.69917 15.446 9.65895C15.376 8.31895 14.646 7.56796 13.346 7.49795C13.342 7.49788 13.338 7.49788 13.334 7.49795Z" fill="url(#paint0_linear)"/>
<defs>
<linearGradient id="paint0_linear" x1="12.499" y1="0" x2="12.499" y2="23.9999" gradientUnits="userSpaceOnUse">
<stop stop-color="#675DAC"/>
<stop offset="1" stop-color="#828EFF"/>
</linearGradient>
</defs>
</svg>
