<svg width="21" height="12" viewBox="0 0 21 12" fill="none" xmlns="http://www.w3.org/2000/svg">
<path d="M20.079 0.854828C20.219 0.389828 20.079 0.0488281 19.417 0.0488281H17.224C16.666 0.0488281 16.411 0.343829 16.271 0.667829C16.271 0.667829 15.156 3.38683 13.576 5.14983C13.066 5.66283 12.833 5.82483 12.555 5.82483C12.416 5.82483 12.214 5.66283 12.214 5.19783V0.854828C12.214 0.296828 12.053 0.0488281 11.588 0.0488281H8.142C7.794 0.0488281 7.584 0.306828 7.584 0.552828C7.584 1.08083 8.374 1.20283 8.455 2.69083V5.91883C8.455 6.62583 8.328 6.75483 8.048 6.75483C7.305 6.75483 5.497 4.02583 4.424 0.901828C4.215 0.294828 4.004 0.0498285 3.444 0.0498285H1.252C0.625 0.0498285 0.5 0.344828 0.5 0.668828C0.5 1.25083 1.243 4.13083 3.961 7.93983C5.773 10.5408 8.324 11.9508 10.648 11.9508C12.041 11.9508 12.213 11.6378 12.213 11.0978V9.13183C12.213 8.50583 12.346 8.37983 12.787 8.37983C13.111 8.37983 13.669 8.54383 14.97 9.79683C16.456 11.2828 16.702 11.9498 17.537 11.9498H19.729C20.355 11.9498 20.668 11.6368 20.488 11.0188C20.291 10.4038 19.581 9.50883 18.639 8.44983C18.127 7.84583 17.362 7.19583 17.129 6.87083C16.804 6.45183 16.898 6.26683 17.129 5.89483C17.13 5.89583 19.801 2.13383 20.079 0.854828Z" fill="url(#paint0_linear)"/>
<defs>
<linearGradient id="paint0_linear" x1="10.5192" y1="0.0488281" x2="10.5192" y2="11.9508" gradientUnits="userSpaceOnUse">
<stop stop-color="#4A76A8"/>
<stop offset="1" stop-color="#5F9FFF"/>
</linearGradient>
</defs>
</svg>
