<svg width="25" height="24" viewBox="0 0 25 24" fill="none" xmlns="http://www.w3.org/2000/svg">
<path d="M12.0156 2.01206C6.70564 2.26206 2.51664 6.65206 2.53264 11.9291C2.53527 13.4824 2.90716 15.0128 3.61764 16.3941L2.55964 21.4951C2.54673 21.5588 2.55011 21.6248 2.56947 21.687C2.58882 21.7491 2.62353 21.8053 2.67038 21.8505C2.71723 21.8956 2.77471 21.9283 2.83751 21.9453C2.9003 21.9624 2.96638 21.9633 3.02964 21.9481L8.06364 20.7641C9.39692 21.4229 10.8606 21.7755 12.3476 21.7961C17.7746 21.8791 22.2986 17.6011 22.4676 12.2161C22.6496 6.44106 17.8506 1.73506 12.0156 2.01106V2.01206ZM18.0226 17.3791C17.2971 18.102 16.4361 18.6746 15.4889 19.0642C14.5416 19.4537 13.5268 19.6525 12.5026 19.6491C11.2977 19.6528 10.1083 19.3761 9.02864 18.8411L8.32764 18.4941L5.24064 19.2201L5.89064 16.0891L5.54464 15.4171C4.98374 14.3298 4.69287 13.1235 4.69664 11.9001C4.69664 9.83006 5.50864 7.88306 6.98264 6.42006C8.45183 4.96576 10.4354 4.1497 12.5026 4.14906C14.5886 4.14906 16.5486 4.95506 18.0226 6.41906C18.7489 7.1347 19.3251 7.98791 19.7178 8.92883C20.1105 9.86975 20.3117 10.8795 20.3096 11.8991C20.3096 13.9511 19.4846 15.9291 18.0226 17.3801V17.3791Z" fill="url(#paint0_linear)"/>
<path d="M17.3416 14.045L15.4106 13.495C15.286 13.4592 15.1541 13.4576 15.0287 13.4903C14.9032 13.5231 14.7889 13.5889 14.6976 13.681L14.2256 14.159C14.128 14.2579 14.0033 14.3259 13.8673 14.3543C13.7312 14.3828 13.5898 14.3705 13.4606 14.319C12.5476 13.952 10.6256 12.256 10.1346 11.407C10.0658 11.2871 10.0344 11.1493 10.0444 11.0114C10.0543 10.8735 10.1053 10.7418 10.1906 10.633L10.6026 10.103C10.682 10.0015 10.7322 9.88023 10.7478 9.75234C10.7635 9.62445 10.7441 9.4947 10.6917 9.377L9.87965 7.553C9.83372 7.45105 9.76478 7.36114 9.67823 7.29034C9.59169 7.21954 9.4899 7.16979 9.38087 7.14498C9.27184 7.12017 9.15855 7.12098 9.04989 7.14736C8.94123 7.17374 8.84017 7.22496 8.75465 7.297C8.21565 7.75 7.57565 8.437 7.49865 9.2C7.36165 10.543 7.94165 12.236 10.1356 14.27C12.6706 16.619 14.7016 16.93 16.0226 16.611C16.7726 16.431 17.3727 15.708 17.7497 15.117C17.8099 15.0231 17.8474 14.9164 17.8589 14.8054C17.8704 14.6945 17.8558 14.5823 17.8161 14.4781C17.7764 14.3738 17.7128 14.2803 17.6304 14.2051C17.548 14.1299 17.4491 14.075 17.3416 14.045Z" fill="url(#paint1_linear)"/>
<defs>
<linearGradient id="paint0_linear" x1="12.5026" y1="1.99951" x2="12.5026" y2="21.9588" gradientUnits="userSpaceOnUse">
<stop stop-color="#40C56F"/>
<stop offset="1" stop-color="#3EFF97"/>
</linearGradient>
<linearGradient id="paint1_linear" x1="12.6712" y1="7.12695" x2="12.6712" y2="16.7156" gradientUnits="userSpaceOnUse">
<stop stop-color="#40C56F"/>
<stop offset="1" stop-color="#3EFF97"/>
</linearGradient>
</defs>
</svg>
