<svg width="25" height="24" viewBox="0 0 25 24" fill="none" xmlns="http://www.w3.org/2000/svg">
<path d="M12.0162 2.01255C6.70625 2.26255 2.51725 6.65255 2.53325 11.9296C2.53588 13.4828 2.90777 15.0133 3.61825 16.3946L2.56025 21.4956C2.54734 21.5593 2.55072 21.6253 2.57008 21.6875C2.58943 21.7496 2.62414 21.8058 2.67099 21.851C2.71784 21.8961 2.77532 21.9287 2.83812 21.9458C2.90091 21.9629 2.96699 21.9638 3.03025 21.9486L8.06425 20.7646C9.39753 21.4234 10.8612 21.776 12.3482 21.7966C17.7752 21.8796 22.2992 17.6016 22.4682 12.2166C22.6502 6.44155 17.8512 1.73555 12.0162 2.01155V2.01255ZM18.0232 17.3796C17.2977 18.1025 16.4367 18.6751 15.4895 19.0646C14.5422 19.4542 13.5274 19.6529 12.5032 19.6496C11.2983 19.6532 10.1089 19.3766 9.02925 18.8416L8.32825 18.4946L5.24125 19.2206L5.89125 16.0896L5.54525 15.4176C4.98435 14.3303 4.69348 13.124 4.69725 11.9006C4.69725 9.83055 5.50925 7.88355 6.98325 6.42055C8.45244 4.96625 10.436 4.15019 12.5032 4.14955C14.5892 4.14955 16.5492 4.95555 18.0232 6.41955C18.7495 7.13519 19.3257 7.9884 19.7184 8.92932C20.1111 9.87023 20.3123 10.88 20.3102 11.8996C20.3102 13.9516 19.4853 15.9296 18.0232 17.3806V17.3796Z" fill="url(#paint0_linear)"/>
<path d="M17.3424 14.045L15.4114 13.495C15.2868 13.4592 15.1548 13.4576 15.0294 13.4903C14.904 13.5231 14.7896 13.5889 14.6984 13.681L14.2264 14.159C14.1287 14.2579 14.0041 14.3259 13.868 14.3543C13.7319 14.3828 13.5905 14.3705 13.4614 14.319C12.5484 13.952 10.6264 12.256 10.1354 11.407C10.0666 11.2871 10.0351 11.1493 10.0451 11.0114C10.0551 10.8735 10.106 10.7418 10.1914 10.633L10.6034 10.103C10.6827 10.0015 10.7329 9.88023 10.7486 9.75234C10.7642 9.62445 10.7448 9.4947 10.6924 9.377L9.88038 7.553C9.83446 7.45105 9.76551 7.36114 9.67896 7.29034C9.59242 7.21954 9.49063 7.16979 9.3816 7.14498C9.27257 7.12017 9.15928 7.12098 9.05062 7.14736C8.94196 7.17374 8.8409 7.22496 8.75538 7.297C8.21638 7.75 7.57638 8.437 7.49938 9.2C7.36238 10.543 7.94238 12.236 10.1364 14.27C12.6714 16.619 14.7024 16.93 16.0234 16.611C16.7734 16.431 17.3734 15.708 17.7504 15.117C17.8107 15.0231 17.8481 14.9164 17.8596 14.8054C17.8712 14.6945 17.8565 14.5823 17.8168 14.4781C17.7771 14.3738 17.7135 14.2803 17.6311 14.2051C17.5487 14.1299 17.4498 14.075 17.3424 14.045Z" fill="url(#paint1_linear)"/>
<defs>
<linearGradient id="paint0_linear" x1="12.5032" y1="2" x2="12.5032" y2="21.9593" gradientUnits="userSpaceOnUse">
<stop stop-color="#40C56F"/>
<stop offset="1" stop-color="#3EFF97"/>
</linearGradient>
<linearGradient id="paint1_linear" x1="12.672" y1="7.12695" x2="12.672" y2="16.7156" gradientUnits="userSpaceOnUse">
<stop stop-color="#40C56F"/>
<stop offset="1" stop-color="#3EFF97"/>
</linearGradient>
</defs>
</svg>
